Coordinates
version=1
nRows=4
nColumns=63
inDegrees=yes

Units are S.I. units (second, meters, Newtons, ...)
If the header above contains a line with 'inDegrees', this indicates whether rotational values are in degrees (yes) or radians (no).

endheader
time	pelvis_tilt	pelvis_list	pelvis_rotation	pelvis_tx	pelvis_ty	pelvis_tz	hip_flexion_r	hip_adduction_r	hip_rotation_r	knee_angle_r	knee_angle_r_beta	ankle_angle_r	subtalar_angle_r	mtp_angle_r	hip_flexion_l	hip_adduction_l	hip_rotation_l	knee_angle_l	knee_angle_l_beta	ankle_angle_l	subtalar_angle_l	mtp_angle_l	L5_S1_Flex_Ext	L5_S1_Lat_Bending	L5_S1_axial_rotation	L4_L5_Flex_Ext	L4_L5_Lat_Bending	L4_L5_axial_rotation	L3_L4_Flex_Ext	L3_L4_Lat_Bending	L3_L4_axial_rotation	L2_L3_Flex_Ext	L2_L3_Lat_Bending	L2_L3_axial_rotation	L1_L2_Flex_Ext	L1_L2_Lat_Bending	L1_L2_axial_rotation	L1_T12_Flex_Ext	L1_T12_Lat_Bending	L1_T12_axial_rotation	Abs_r3	Abs_r2	Abs_r1	Abs_t1	Abs_t2	neck_flexion	neck_bending	neck_rotation	arm_flex_r	arm_add_r	arm_rot_r	elbow_flex_r	pro_sup_r	wrist_flex_r	wrist_dev_r	arm_flex_l	arm_add_l	arm_rot_l	elbow_flex_l	pro_sup_l	wrist_flex_l	wrist_dev_l
      5.71186441	      4.05249203	      1.43404074	     87.05246372	      0.16247203	      0.90728504	      0.41767179	      1.68496956	     -1.47627500	    -18.73336055	     21.97813053	      0.38359074	     36.11675194	     18.36723152	      0.00000000	      2.40540902	     -3.46858769	     -8.34399456	     22.25615348	      0.38844316	     32.57157083	      1.74948828	      0.00000000	      0.02977034	      0.02291405	      1.24924226	      0.05528650	      0.03047569	      1.32731990	      0.04890969	      0.05571322	      1.32731990	      0.03402452	      0.05571322	      1.09308698	      0.02764474	      0.04672633	      1.01500933	      0.01701077	      0.03549387	      0.93693169	      0.21264655	      0.25920833	      6.94791066	      0.00000000	      0.00000000	     18.49722472	     -3.03824877	    -10.17693285	    -17.05575769	    -74.33956157	   -105.59449418	    103.43432074	     59.21907487	     19.20226298	      5.36733078	     46.68569597	    -73.14856802	    -26.31788518	    106.82534652	     69.02809811	     -7.71837785	    -10.67334202
      5.72881356	      3.99821594	      1.41830137	     86.97304468	      0.16250884	      0.90742656	      0.41743269	      1.61799732	     -1.54868409	    -18.84253450	     21.95521225	      0.38319074	     36.01700764	     18.35183123	      0.00000000	      2.27054037	     -3.43051196	     -8.64795135	     22.01815719	      0.38428934	     32.59327898	      1.94541770	      0.00000000	      0.03517131	      0.01950524	      1.23328997	      0.06531663	      0.02594196	      1.31037059	      0.05778294	      0.04742503	      1.31037059	      0.04019728	      0.04742503	      1.07912872	      0.03266007	      0.03977508	      1.00204810	      0.02009688	      0.03021361	      0.92496748	      0.25122512	      0.22064714	      6.85918882	      0.00000000	      0.00000000	     18.97313796	     -2.81322823	     -9.86107725	    -17.08040177	    -75.56397222	   -102.50887482	    104.49163453	     60.58031443	     18.99849016	      6.29390277	     48.25247166	    -73.50381321	    -23.39702672	    108.92946775	     70.53455939	     -6.75919335	     -7.73908453
      5.74576271	      3.99571675	      1.41413498	     86.97181929	      0.16236262	      0.90758221	      0.41724587	      1.51541694	     -1.54431127	    -18.87753114	     21.84462203	      0.38126058	     35.92564496	     18.33234521	      0.00000000	      2.14938181	     -3.42560261	     -8.81149441	     21.79929223	      0.38046942	     32.47056160	      1.97140917	      0.00000000	      0.04391902	      0.02742495	      1.21506258	      0.08156201	      0.03647518	      1.29100399	      0.07215455	      0.06668101	      1.29100399	      0.05019504	      0.06668101	      1.06317976	      0.04078320	      0.05592495	      0.98723835	      0.02509533	      0.04248124	      0.91129694	      0.31370914	      0.31023647	      6.75781357	      0.00000000	      0.00000000	     19.07608102	     -2.74085522	     -9.27354336	    -18.52130334	    -76.69117445	   -100.23320895	    105.96603638	     63.01712121	     18.31148450	      8.23419151	     48.00362251	    -73.63900919	    -21.89615011	    111.34127805	     72.32272091	     -5.63763880	     -4.04426523
      5.76271186	      4.00157404	      1.57187193	     86.95734211	      0.16226407	      0.90795246	      0.41797404	      1.34465067	     -1.54240755	    -18.89369293	     21.80230699	      0.38052204	     35.80837444	     18.33661237	      0.00000000	      1.95724666	     -3.43177695	     -8.99712266	     21.65944348	      0.37802860	     32.28416825	      2.02537021	      0.00000000	      0.02178369	      0.03439467	      0.99517911	      0.04045450	      0.04574492	      1.05737781	      0.03578843	      0.08362721	      1.05737781	      0.02489658	      0.08362721	      0.87078173	      0.02022834	      0.07013762	      0.80858303	      0.01244720	      0.05327735	      0.74638434	      0.15559875	      0.38907944	      5.53488768	      0.00000000	      0.00000000	     18.89943106	     -2.49447391	     -8.01723811	     -7.75681055	    -77.90913227	    -85.62138762	    107.25714657	     67.65339176	     17.57165924	      9.59130161	     43.89227672	    -74.33926073	    -25.19716979	    114.31262343	     77.25961525	     -1.17607215	      2.08709749
